<svg version="1.1" id="Layer_1" xmlns="http://www.w3.org/2000/svg" xmlns:xlink="http://www.w3.org/1999/xlink" x="0px" y="0px"
	 width="100%" viewBox="0 0 100 100" enable-background="new 0 0 100 100" xml:space="preserve">
<path fill="#FEFEFE" opacity="1.000000" stroke="none" 
	d="
M28.000000,101.000000 
	C19.082954,101.000000 10.165911,101.000000 1.000000,101.000000 
	C1.000000,94.314651 1.000000,87.626236 1.359134,80.402702 
	C15.967277,74.640366 23.574316,61.959824 18.962053,45.634151 
	C19.949800,44.912140 21.232904,44.317875 21.974783,43.320869 
	C22.546118,42.553055 22.896940,41.032124 22.503061,40.298599 
	C22.098515,39.545200 20.241520,38.683525 19.758205,38.999210 
	C15.347162,41.880344 14.124108,37.656391 11.883182,35.692097 
	C9.331291,33.455227 9.504934,32.081364 12.962148,31.073309 
	C14.019946,30.764874 14.709049,29.191969 15.566996,28.198128 
	C13.258406,26.485237 11.032364,24.633801 8.575420,23.169901 
	C8.049158,22.856344 6.641273,23.875149 5.740101,24.440495 
	C5.511425,24.583954 5.530566,25.388342 5.669949,25.812019 
	C7.311188,30.800894 4.918219,31.239943 1.000000,30.000000 
	C1.000000,20.415445 1.000000,10.830892 1.000000,1.000000 
	C8.352349,1.000000 15.707438,1.000000 23.524471,1.437221 
	C23.921833,7.578225 23.965126,12.803876 27.205786,18.353622 
	C34.439323,30.741327 53.506554,34.278496 64.407867,24.927107 
	C72.040161,18.379961 75.623398,10.912845 74.000000,1.000000 
	C82.929085,1.000000 91.858162,1.000000 101.000000,1.000000 
	C101.000000,10.353155 101.000000,19.707918 100.547302,29.523636 
	C84.407715,30.042240 73.807175,40.457558 73.998344,55.624859 
	C74.180298,70.060783 85.701828,80.461594 101.000000,80.000000 
	C101.000000,86.931198 101.000000,93.862396 101.000000,101.000000 
	C93.313690,101.000000 85.625534,101.000000 77.635094,100.600708 
	C73.921387,98.604385 69.645714,99.148911 67.150627,95.145012 
	C65.585060,92.632736 65.004341,91.742470 68.372101,90.735565 
	C71.857224,89.693573 72.064384,87.234650 69.033638,85.150246 
	C67.308479,83.963753 65.324455,83.153679 63.229584,82.054802 
	C62.342800,83.585678 60.930813,84.926933 61.184551,85.762115 
	C62.904224,91.422440 59.828140,90.116371 56.572590,89.329865 
	C44.799355,86.485558 33.593918,91.124626 28.000000,101.000000 
z"/>
<path fill="#FCFCFC" opacity="1.000000" stroke="none" 
	d="
M29.000000,1.000000 
	C35.354397,1.000000 41.708797,1.000000 48.327209,1.279243 
	C47.833672,2.843509 46.951958,4.082400 46.440517,5.458869 
	C46.355068,5.688844 48.142906,7.161878 48.616291,6.967486 
	C53.132767,5.112841 57.552490,3.022592 62.000000,1.000000 
	C64.370560,1.000000 66.741112,1.000000 69.557655,1.438329 
	C69.988457,11.492301 66.599518,18.963749 57.242233,23.072615 
	C49.446381,26.495844 41.754082,25.346872 35.644814,20.573820 
	C29.800163,16.007509 27.311287,8.856501 29.000000,1.000000 
z"/>
<path fill="#FCFCFC" opacity="1.000000" stroke="none" 
	d="
M101.000000,35.000000 
	C101.000000,48.020893 101.000000,61.041790 100.578552,74.638985 
	C87.833817,74.847626 78.612938,65.360001 79.445030,53.904045 
	C80.315140,41.924515 89.554085,33.821815 101.000000,35.000000 
z"/>
<path fill="#818181" opacity="1.000000" stroke="none" 
	d="
M1.000000,30.428463 
	C4.918219,31.239943 7.311188,30.800894 5.669949,25.812019 
	C5.530566,25.388342 5.511425,24.583954 5.740101,24.440495 
	C6.641273,23.875149 8.049158,22.856344 8.575420,23.169901 
	C11.032364,24.633801 13.258406,26.485237 15.566996,28.198128 
	C14.709049,29.191969 14.019946,30.764874 12.962148,31.073309 
	C9.504934,32.081364 9.331291,33.455227 11.883182,35.692097 
	C14.124108,37.656391 15.347162,41.880344 19.758205,38.999210 
	C20.241520,38.683525 22.098515,39.545200 22.503061,40.298599 
	C22.896940,41.032124 22.546118,42.553055 21.974783,43.320869 
	C21.232904,44.317875 19.949800,44.912140 18.962053,45.634151 
	C23.574316,61.959824 15.967277,74.640366 1.359134,79.933792 
	C1.000000,78.285645 1.000000,76.571281 1.356242,74.417854 
	C10.615762,69.721542 15.440247,62.232552 14.846924,53.590351 
	C14.275420,45.265972 8.839873,38.360958 1.000000,36.000000 
	C1.000000,34.285641 1.000000,32.571281 1.000000,30.428463 
z"/>
<path fill="#818181" opacity="1.000000" stroke="none" 
	d="
M28.583334,1.000000 
	C27.311287,8.856501 29.800163,16.007509 35.644814,20.573820 
	C41.754082,25.346872 49.446381,26.495844 57.242233,23.072615 
	C66.599518,18.963749 69.988457,11.492301 70.001816,1.438329 
	C71.066673,1.000000 72.133339,1.000000 73.600006,1.000000 
	C75.623398,10.912845 72.040161,18.379961 64.407867,24.927107 
	C53.506554,34.278496 34.439323,30.741327 27.205786,18.353622 
	C23.965126,12.803876 23.921833,7.578225 23.993208,1.437221 
	C25.388889,1.000000 26.777779,1.000000 28.583334,1.000000 
z"/>
<path fill="#828282" opacity="1.000000" stroke="none" 
	d="
M101.000000,34.583336 
	C89.554085,33.821815 80.315140,41.924515 79.445030,53.904045 
	C78.612938,65.360001 87.833817,74.847626 100.578552,75.107643 
	C101.000000,76.388893 101.000000,77.777779 101.000000,79.583336 
	C85.701828,80.461594 74.180298,70.060783 73.998344,55.624859 
	C73.807175,40.457558 84.407715,30.042240 100.547302,29.992294 
	C101.000000,31.388889 101.000000,32.777779 101.000000,34.583336 
z"/>
<path fill="#FBFBFB" opacity="1.000000" stroke="none" 
	d="
M1.000000,36.463184 
	C8.839873,38.360958 14.275420,45.265972 14.846924,53.590351 
	C15.440247,62.232552 10.615762,69.721542 1.356242,73.989395 
	C1.000000,67.978851 1.000000,61.957695 1.388938,55.540199 
	C2.878527,54.814529 4.317156,54.803349 4.998604,54.079418 
	C5.959795,53.058308 6.360530,51.509628 7.000881,50.186504 
	C5.799793,49.762566 4.622066,49.237793 3.388947,48.952106 
	C2.636705,48.777836 1.799205,48.971561 1.000000,49.000000 
	C1.000000,44.975456 1.000000,40.950912 1.000000,36.463184 
z"/>
<path fill="#818181" opacity="1.000000" stroke="none" 
	d="
M28.437500,101.000000 
	C33.593918,91.124626 44.799355,86.485558 56.572590,89.329865 
	C59.828140,90.116371 62.904224,91.422440 61.184551,85.762115 
	C60.930813,84.926933 62.342800,83.585678 63.229584,82.054802 
	C65.324455,83.153679 67.308479,83.963753 69.033638,85.150246 
	C72.064384,87.234650 71.857224,89.693573 68.372101,90.735565 
	C65.004341,91.742470 65.585060,92.632736 67.150627,95.145012 
	C69.645714,99.148911 73.921387,98.604385 77.166397,100.600708 
	C73.307091,101.000000 69.614182,101.000000 65.324142,100.689674 
	C54.946659,91.528954 42.569603,91.787361 35.000000,101.000000 
	C32.958332,101.000000 30.916666,101.000000 28.437500,101.000000 
z"/>
<path fill="#FBFBFB" opacity="1.000000" stroke="none" 
	d="
M35.468658,101.000000 
	C42.569603,91.787361 54.946659,91.528954 64.863510,100.689674 
	C55.312439,101.000000 45.624878,101.000000 35.468658,101.000000 
z"/>
<path fill="#828282" opacity="1.000000" stroke="none" 
	d="
M61.536816,1.000000 
	C57.552490,3.022592 53.132767,5.112841 48.616291,6.967486 
	C48.142906,7.161878 46.355068,5.688844 46.440517,5.458869 
	C46.951958,4.082400 47.833672,2.843509 48.795616,1.279243 
	C53.024544,1.000000 57.049088,1.000000 61.536816,1.000000 
z"/>
<path fill="#828282" opacity="1.000000" stroke="none" 
	d="
M1.000000,49.428459 
	C1.799205,48.971561 2.636705,48.777836 3.388947,48.952106 
	C4.622066,49.237793 5.799793,49.762566 7.000881,50.186504 
	C6.360530,51.509628 5.959795,53.058308 4.998604,54.079418 
	C4.317156,54.803349 2.878527,54.814529 1.388938,55.071930 
	C1.000000,53.285641 1.000000,51.571285 1.000000,49.428459 
z"/>
</svg>