<svg version="1.1" id="Layer_1" xmlns="http://www.w3.org/2000/svg" xmlns:xlink="http://www.w3.org/1999/xlink" x="0px" y="0px"
	 width="100%" viewBox="0 0 400 400" enable-background="new 0 0 400 400" xml:space="preserve">
<path fill="#FFFFFF" opacity="1.000000" stroke="none" 
	d="
M1.000000,105.000000 
	C1.000000,70.406387 1.000000,35.812778 1.000000,1.000000 
	C35.353916,1.000000 69.708298,1.000000 104.551224,1.467767 
	C104.660431,12.400796 105.894676,22.571859 108.869049,32.712906 
	C112.741600,45.916218 119.861214,57.180168 128.949860,66.996254 
	C135.181717,73.726891 142.770187,79.384262 150.373444,84.619118 
	C161.562973,92.323120 174.060074,96.922791 187.901215,96.972969 
	C196.555939,97.004341 205.233383,96.588058 213.859467,97.085861 
	C222.796219,97.601593 230.891220,94.900368 238.955475,91.885300 
	C255.482498,85.706177 268.165802,74.189735 279.058105,60.907509 
	C286.943054,51.292458 293.093231,40.216389 295.036987,27.668594 
	C296.397156,18.888403 296.394165,9.897044 297.000000,1.000000 
	C331.593597,1.000000 366.187225,1.000000 401.000000,1.000000 
	C401.000000,35.353916 401.000000,69.708298 400.574310,104.533920 
	C394.100433,105.073189 387.978638,111.523521 389.261108,116.476974 
	C390.528381,121.371948 395.500275,125.405319 401.000000,126.000000 
	C401.000000,129.361282 401.000000,132.722580 400.628510,136.575165 
	C392.162842,139.220337 389.136627,144.099960 389.137665,152.330429 
	C389.139526,167.295914 389.135284,182.261398 389.139374,197.226883 
	C389.141815,206.134598 392.465332,210.827179 401.000000,214.000000 
	C401.000000,234.687561 401.000000,255.375122 400.552307,276.551514 
	C370.169281,275.635162 347.402954,261.654633 333.980988,235.313080 
	C320.295380,208.454193 323.189331,181.680176 339.880096,157.793671 
	C342.531921,159.869843 344.864624,162.842087 347.837830,163.776581 
	C353.389587,165.521530 355.815918,160.925674 357.761749,156.846329 
	C363.019379,145.823685 368.070343,134.702209 373.176086,123.607437 
	C376.011505,117.446167 373.124756,112.836281 366.208008,113.123329 
	C356.287415,113.535049 346.376404,114.299614 336.481445,115.148422 
	C332.386047,115.499725 328.243134,116.107506 324.299957,117.226410 
	C318.856720,118.770973 317.525757,122.779602 320.419708,127.621658 
	C321.184631,128.901520 322.150299,130.060028 322.998871,131.291443 
	C327.140717,137.302094 327.044464,137.561905 322.350128,143.252579 
	C314.284882,153.029648 308.509094,164.474274 306.608246,176.601273 
	C304.440979,190.428101 305.088470,204.764709 305.326111,218.866058 
	C305.420685,224.477371 306.974762,230.345444 309.109955,235.589462 
	C316.145111,252.867752 326.261993,267.872589 341.603638,279.223267 
	C351.477722,286.528687 361.859497,292.636169 373.831329,294.905914 
	C382.701080,296.587463 391.930695,296.370972 401.000000,297.000000 
	C401.000000,331.593597 401.000000,366.187225 401.000000,401.000000 
	C366.646088,401.000000 332.291687,401.000000 297.448730,400.531738 
	C296.176331,390.532196 296.978058,380.526398 294.295410,371.563446 
	C287.675171,349.444824 274.179749,331.821106 254.593765,319.208649 
	C237.284882,308.062561 218.327164,303.234528 197.809143,305.169739 
	C195.876892,305.351959 193.413986,307.073883 192.413177,308.789948 
	C186.407791,319.087433 194.842468,325.816101 202.446762,325.933868 
	C216.467255,326.151001 229.466263,329.900696 241.280746,337.648468 
	C264.123260,352.628296 275.511658,374.009003 277.000000,401.000000 
	C259.979095,401.000000 242.958206,401.000000 225.243134,400.739410 
	C223.497177,399.997375 222.441971,399.523224 221.394165,399.033295 
	C215.883835,396.456696 212.109711,393.443512 212.649200,386.028625 
	C213.492401,374.439392 213.297729,362.720062 212.645035,351.106293 
	C212.417511,347.057556 210.607956,341.813354 207.653305,339.446686 
	C199.286285,332.744659 189.721588,341.235748 189.914597,349.574585 
	C190.311142,366.707886 190.012497,383.857239 190.000000,401.000000 
	C168.979111,401.000000 147.958206,401.000000 126.436615,400.558044 
	C126.581146,384.049835 132.212082,369.708984 141.218582,355.747955 
	C142.645721,360.347870 144.618317,363.876129 149.515167,363.930115 
	C154.561630,363.985779 156.506271,360.230988 158.318588,356.429321 
	C163.276199,346.029724 168.030441,335.528229 173.215042,325.243439 
	C176.852173,318.028442 174.138123,312.823181 166.032089,313.124207 
	C155.782196,313.504852 145.540054,314.269501 135.318451,315.146912 
	C131.398087,315.483398 127.390938,316.174774 123.729004,317.530273 
	C122.106033,318.131012 119.914291,321.164795 120.279610,322.430847 
	C121.422501,326.391663 123.271637,330.299988 125.591667,333.724152 
	C127.605560,336.696472 126.739784,338.253418 124.946808,340.876923 
	C120.102715,347.964813 114.990074,355.074097 111.543922,362.864929 
	C106.234383,374.868439 104.094124,387.757538 105.000000,401.000000 
	C70.406395,401.000000 35.812786,401.000000 1.000000,401.000000 
	C1.000000,366.646088 1.000000,332.291687 1.468582,297.460083 
	C3.435740,296.981079 4.947106,296.850189 6.430942,296.997192 
	C23.915508,298.729248 39.432358,293.241486 54.126900,284.343689 
	C65.135750,277.677643 73.949669,268.579407 81.413918,258.441986 
	C88.686134,248.565384 94.997673,237.660950 96.212616,225.128113 
	C97.251617,214.410324 96.447762,203.526871 97.093178,192.754700 
	C97.925880,178.856537 94.170822,166.339722 87.629120,154.281494 
	C79.526367,139.345764 68.295029,127.413948 53.916794,118.580582 
	C37.743153,108.644196 20.197710,103.450081 1.000000,105.000000 
z"/>
<path fill="#FEFFFF" opacity="1.000000" stroke="none" 
	d="
M126.000000,1.000000 
	C147.020889,1.000000 168.041794,1.000000 189.547729,1.388597 
	C190.529358,5.932408 192.064209,9.400902 196.003754,11.489985 
	C205.340073,16.440884 214.536682,21.667601 223.991776,26.377279 
	C229.143997,28.943665 235.482422,26.675816 238.173798,22.078518 
	C240.853943,17.500414 239.472122,11.062451 234.790909,7.538919 
	C231.660309,5.182528 228.272644,3.167681 225.000000,1.000000 
	C242.020889,1.000000 259.041779,1.000000 276.532990,1.446748 
	C276.170746,7.952136 276.020172,14.204308 274.366882,20.030037 
	C270.670654,33.054859 264.246613,44.494511 254.551422,54.391788 
	C240.174118,69.068764 222.872726,76.438194 202.753113,76.949142 
	C184.047302,77.424202 167.476822,71.226395 153.138901,58.873077 
	C135.373657,43.566818 126.684639,24.211834 126.000000,1.000000 
z"/>
<path fill="#FEFFFF" opacity="1.000000" stroke="none" 
	d="
M1.000000,137.000000 
	C1.000000,133.638718 1.000000,130.277420 1.452742,126.418625 
	C45.458832,126.288887 77.595253,160.921783 77.418007,201.630615 
	C77.231621,244.436646 43.109562,276.893188 1.000000,277.000000 
	C1.000000,256.645782 1.000000,236.291550 1.370480,215.463837 
	C7.038332,217.666748 12.247833,220.540085 17.661654,222.955460 
	C21.786877,224.795944 26.208658,227.345779 30.430285,227.223572 
	C34.979633,227.091858 38.991199,223.746552 39.840954,218.346344 
	C40.633392,213.310394 37.962425,207.930557 33.305019,205.360199 
	C28.264088,202.578186 23.305183,199.602402 18.081577,197.211227 
	C14.112562,195.394363 12.873812,192.659851 12.917685,188.556137 
	C13.051117,176.075348 12.991919,163.592194 12.959069,151.110062 
	C12.935352,142.098099 10.035624,138.720139 1.000000,137.000000 
z"/>
<path fill="#9BFFFF" opacity="1.000000" stroke="none" 
	d="
M401.000000,296.531616 
	C391.930695,296.370972 382.701080,296.587463 373.831329,294.905914 
	C361.859497,292.636169 351.477722,286.528687 341.603638,279.223267 
	C326.261993,267.872589 316.145111,252.867752 309.109955,235.589462 
	C306.974762,230.345444 305.420685,224.477371 305.326111,218.866058 
	C305.088470,204.764709 304.440979,190.428101 306.608246,176.601273 
	C308.509094,164.474274 314.284882,153.029648 322.350128,143.252579 
	C327.044464,137.561905 327.140717,137.302094 322.998871,131.291443 
	C322.150299,130.060028 321.184631,128.901520 320.419708,127.621658 
	C317.525757,122.779602 318.856720,118.770973 324.299957,117.226410 
	C328.243134,116.107506 332.386047,115.499725 336.481445,115.148422 
	C346.376404,114.299614 356.287415,113.535049 366.208008,113.123329 
	C373.124756,112.836281 376.011505,117.446167 373.176086,123.607437 
	C368.070343,134.702209 363.019379,145.823685 357.761749,156.846329 
	C355.815918,160.925674 353.389587,165.521530 347.837830,163.776581 
	C344.864624,162.842087 342.531921,159.869843 339.880096,157.793671 
	C323.189331,181.680176 320.295380,208.454193 333.980988,235.313080 
	C347.402954,261.654633 370.169281,275.635162 400.552307,277.020172 
	C401.000000,283.354401 401.000000,289.708801 401.000000,296.531616 
z"/>
<path fill="#9AFFFF" opacity="1.000000" stroke="none" 
	d="
M1.000000,277.468384 
	C43.109562,276.893188 77.231621,244.436646 77.418007,201.630615 
	C77.595253,160.921783 45.458832,126.288887 1.452742,125.960556 
	C1.000000,119.312355 1.000000,112.624710 1.000000,105.468536 
	C20.197710,103.450081 37.743153,108.644196 53.916794,118.580582 
	C68.295029,127.413948 79.526367,139.345764 87.629120,154.281494 
	C94.170822,166.339722 97.925880,178.856537 97.093178,192.754700 
	C96.447762,203.526871 97.251617,214.410324 96.212616,225.128113 
	C94.997673,237.660950 88.686134,248.565384 81.413918,258.441986 
	C73.949669,268.579407 65.135750,277.677643 54.126900,284.343689 
	C39.432358,293.241486 23.915508,298.729248 6.430942,296.997192 
	C4.947106,296.850189 3.435740,296.981079 1.468582,296.991455 
	C1.000000,290.645599 1.000000,284.291199 1.000000,277.468384 
z"/>
<path fill="#9BFFFF" opacity="1.000000" stroke="none" 
	d="
M125.531464,1.000000 
	C126.684639,24.211834 135.373657,43.566818 153.138901,58.873077 
	C167.476822,71.226395 184.047302,77.424202 202.753113,76.949142 
	C222.872726,76.438194 240.174118,69.068764 254.551422,54.391788 
	C264.246613,44.494511 270.670654,33.054859 274.366882,20.030037 
	C276.020172,14.204308 276.170746,7.952136 277.001648,1.446748 
	C283.354401,1.000000 289.708801,1.000000 296.531616,1.000000 
	C296.394165,9.897044 296.397156,18.888403 295.036987,27.668594 
	C293.093231,40.216389 286.943054,51.292458 279.058105,60.907509 
	C268.165802,74.189735 255.482498,85.706177 238.955475,91.885300 
	C230.891220,94.900368 222.796219,97.601593 213.859467,97.085861 
	C205.233383,96.588058 196.555939,97.004341 187.901215,96.972969 
	C174.060074,96.922791 161.562973,92.323120 150.373444,84.619118 
	C142.770187,79.384262 135.181717,73.726891 128.949860,66.996254 
	C119.861214,57.180168 112.741600,45.916218 108.869049,32.712906 
	C105.894676,22.571859 104.660431,12.400796 105.019882,1.467767 
	C111.687645,1.000000 118.375290,1.000000 125.531464,1.000000 
z"/>
<path fill="#9BFFFF" opacity="1.000000" stroke="none" 
	d="
M277.468384,401.000000 
	C275.511658,374.009003 264.123260,352.628296 241.280746,337.648468 
	C229.466263,329.900696 216.467255,326.151001 202.446762,325.933868 
	C194.842468,325.816101 186.407791,319.087433 192.413177,308.789948 
	C193.413986,307.073883 195.876892,305.351959 197.809143,305.169739 
	C218.327164,303.234528 237.284882,308.062561 254.593765,319.208649 
	C274.179749,331.821106 287.675171,349.444824 294.295410,371.563446 
	C296.978058,380.526398 296.176331,390.532196 296.980072,400.531738 
	C290.645599,401.000000 284.291199,401.000000 277.468384,401.000000 
z"/>
<path fill="#9BFFFF" opacity="1.000000" stroke="none" 
	d="
M105.468536,401.000000 
	C104.094124,387.757538 106.234383,374.868439 111.543922,362.864929 
	C114.990074,355.074097 120.102715,347.964813 124.946808,340.876923 
	C126.739784,338.253418 127.605560,336.696472 125.591667,333.724152 
	C123.271637,330.299988 121.422501,326.391663 120.279610,322.430847 
	C119.914291,321.164795 122.106033,318.131012 123.729004,317.530273 
	C127.390938,316.174774 131.398087,315.483398 135.318451,315.146912 
	C145.540054,314.269501 155.782196,313.504852 166.032089,313.124207 
	C174.138123,312.823181 176.852173,318.028442 173.215042,325.243439 
	C168.030441,335.528229 163.276199,346.029724 158.318588,356.429321 
	C156.506271,360.230988 154.561630,363.985779 149.515167,363.930115 
	C144.618317,363.876129 142.645721,360.347870 141.218582,355.747955 
	C132.212082,369.708984 126.581146,384.049835 125.967957,400.558044 
	C119.312355,401.000000 112.624710,401.000000 105.468536,401.000000 
z"/>
<path fill="#9CFFFF" opacity="1.000000" stroke="none" 
	d="
M1.000000,137.468658 
	C10.035624,138.720139 12.935352,142.098099 12.959069,151.110062 
	C12.991919,163.592194 13.051117,176.075348 12.917685,188.556137 
	C12.873812,192.659851 14.112562,195.394363 18.081577,197.211227 
	C23.305183,199.602402 28.264088,202.578186 33.305019,205.360199 
	C37.962425,207.930557 40.633392,213.310394 39.840954,218.346344 
	C38.991199,223.746552 34.979633,227.091858 30.430285,227.223572 
	C26.208658,227.345779 21.786877,224.795944 17.661654,222.955460 
	C12.247833,220.540085 7.038332,217.666748 1.370480,214.995178 
	C1.000000,189.312439 1.000000,163.624878 1.000000,137.468658 
z"/>
<path fill="#9CFFFF" opacity="1.000000" stroke="none" 
	d="
M190.468658,401.000000 
	C190.012497,383.857239 190.311142,366.707886 189.914597,349.574585 
	C189.721588,341.235748 199.286285,332.744659 207.653305,339.446686 
	C210.607956,341.813354 212.417511,347.057556 212.645035,351.106293 
	C213.297729,362.720062 213.492401,374.439392 212.649200,386.028625 
	C212.109711,393.443512 215.883835,396.456696 221.394165,399.033295 
	C222.441971,399.523224 223.497177,399.997375 224.774475,400.739410 
	C213.645767,401.000000 202.291550,401.000000 190.468658,401.000000 
z"/>
<path fill="#9BFFFF" opacity="1.000000" stroke="none" 
	d="
M224.531342,1.000000 
	C228.272644,3.167681 231.660309,5.182528 234.790909,7.538919 
	C239.472122,11.062451 240.853943,17.500414 238.173798,22.078518 
	C235.482422,26.675816 229.143997,28.943665 223.991776,26.377279 
	C214.536682,21.667601 205.340073,16.440884 196.003754,11.489985 
	C192.064209,9.400902 190.529358,5.932408 190.016388,1.388597 
	C201.354233,1.000000 212.708450,1.000000 224.531342,1.000000 
z"/>
<path fill="#9CFFFF" opacity="1.000000" stroke="none" 
	d="
M401.000000,213.531342 
	C392.465332,210.827179 389.141815,206.134598 389.139374,197.226883 
	C389.135284,182.261398 389.139526,167.295914 389.137665,152.330429 
	C389.136627,144.099960 392.162842,139.220337 400.628510,137.033234 
	C401.000000,162.354233 401.000000,187.708450 401.000000,213.531342 
z"/>
<path fill="#9CFFFF" opacity="1.000000" stroke="none" 
	d="
M401.000000,125.531464 
	C395.500275,125.405319 390.528381,121.371948 389.261108,116.476974 
	C387.978638,111.523521 394.100433,105.073189 400.574310,105.002579 
	C401.000000,111.687645 401.000000,118.375290 401.000000,125.531464 
z"/>
</svg>